# xmcd
#
# Track frame offsets:
# 150
# 14975
# 30800
# 50345
# 65003
# 79780
# 97915
# 115127
# 134214
# 149674
# 165913
# 174638
#
# Disc length: 2522 seconds
#
#
# Revision: 0
# Processed by: cddbd v1.5.2PL0 Copyright (c) Steve Scherf et al.
# Submitted via: FreeRIP 2.944 
#
DISCID=a409d80c
DTITLE=B. G. Williams - He gave me life
DYEAR=1900
DGENRE=Gospel
TTITLE0=He Gave Me Life
TTITLE1=I Want My Life To Count For Jesus
TTITLE2=I'll Go To Church Again With Momma
TTITLE3='s Gotta Get Along Without Me
TTITLE4=Great Speckled Bird
TTITLE5=He's Comming Back Again
TTITLE6=Please Let Me Walk With You Jesus
TTITLE7=Just A Little Sopt In Heaven
TTITLE8=Jesus Use Me
TTITLE9=I've Been On the Mountain
TTITLE10=Cowboy Up
TTITLE11=Beyond The Moon
EXTD=
EXTT0=
EXTT1=
EXTT2=
EXTT3=
EXTT4=
EXTT5=
EXTT6=
EXTT7=
EXTT8=
EXTT9=
EXTT10=
EXTT11=
PLAYORDER=
